<svg width="1530.000000" height="2136.000000" viewBox="0 0 1530 2136" fill="none" xmlns="http://www.w3.org/2000/svg" xmlns:xlink="http://www.w3.org/1999/xlink">
	<desc>
			Created with Pixso.
	</desc>
	<defs/>
	<circle id="Ellipse 23" cx="1365.000000" cy="1624.000000" r="2.000000" fill="#ABB2BF" fill-opacity="1.000000"/>
	<circle id="Ellipse 21" cx="1389.750000" cy="1624.000000" r="2.000000" fill="#ABB2BF" fill-opacity="1.000000"/>
	<circle id="Ellipse 22" cx="1414.500000" cy="1624.000000" r="2.000000" fill="#ABB2BF" fill-opacity="1.000000"/>
	<circle id="Ellipse 20" cx="1439.250000" cy="1624.000000" r="2.000000" fill="#ABB2BF" fill-opacity="1.000000"/>
	<circle id="Ellipse 36" cx="1464.000000" cy="1624.000000" r="2.000000" fill="#ABB2BF" fill-opacity="1.000000"/>
	<circle id="Ellipse 25" cx="1365.000000" cy="1648.750000" r="2.000000" fill="#ABB2BF" fill-opacity="1.000000"/>
	<circle id="Ellipse 26" cx="1389.750000" cy="1648.750000" r="2.000000" fill="#ABB2BF" fill-opacity="1.000000"/>
	<circle id="Ellipse 24" cx="1414.500000" cy="1648.750000" r="2.000000" fill="#ABB2BF" fill-opacity="1.000000"/>
	<circle id="Ellipse 19" cx="1439.250000" cy="1648.750000" r="2.000000" fill="#ABB2BF" fill-opacity="1.000000"/>
	<circle id="Ellipse 36" cx="1464.000000" cy="1648.750000" r="2.000000" fill="#ABB2BF" fill-opacity="1.000000"/>
	<circle id="Ellipse 29" cx="1365.000000" cy="1673.500000" r="2.000000" fill="#ABB2BF" fill-opacity="1.000000"/>
	<circle id="Ellipse 30" cx="1389.750000" cy="1673.500000" r="2.000000" fill="#ABB2BF" fill-opacity="1.000000"/>
	<circle id="Ellipse 28" cx="1414.500000" cy="1673.500000" r="2.000000" fill="#ABB2BF" fill-opacity="1.000000"/>
	<circle id="Ellipse 19" cx="1439.250000" cy="1673.500000" r="2.000000" fill="#ABB2BF" fill-opacity="1.000000"/>
	<circle id="Ellipse 36" cx="1464.000000" cy="1673.500000" r="2.000000" fill="#ABB2BF" fill-opacity="1.000000"/>
	<circle id="Ellipse 33" cx="1365.000000" cy="1698.250000" r="2.000000" fill="#ABB2BF" fill-opacity="1.000000"/>
	<circle id="Ellipse 34" cx="1389.750000" cy="1698.250000" r="2.000000" fill="#ABB2BF" fill-opacity="1.000000"/>
	<circle id="Ellipse 32" cx="1414.500000" cy="1698.250000" r="2.000000" fill="#ABB2BF" fill-opacity="1.000000"/>
	<circle id="Ellipse 19" cx="1439.250000" cy="1698.250000" r="2.000000" fill="#ABB2BF" fill-opacity="1.000000"/>
	<circle id="Ellipse 36" cx="1464.000000" cy="1698.250000" r="2.000000" fill="#ABB2BF" fill-opacity="1.000000"/>
	<circle id="Ellipse 33" cx="1365.000000" cy="1723.000000" r="2.000000" fill="#ABB2BF" fill-opacity="1.000000"/>
	<circle id="Ellipse 34" cx="1389.750000" cy="1723.000000" r="2.000000" fill="#ABB2BF" fill-opacity="1.000000"/>
	<circle id="Ellipse 32" cx="1414.500000" cy="1723.000000" r="2.000000" fill="#ABB2BF" fill-opacity="1.000000"/>
	<circle id="Ellipse 19" cx="1439.250000" cy="1723.000000" r="2.000000" fill="#ABB2BF" fill-opacity="1.000000"/>
	<circle id="Ellipse 36" cx="1464.000000" cy="1723.000000" r="2.000000" fill="#ABB2BF" fill-opacity="1.000000"/>
	<circle id="Ellipse 23" cx="28.000000" cy="2035.000000" r="2.000000" fill="#ABB2BF" fill-opacity="1.000000"/>
	<circle id="Ellipse 21" cx="52.750000" cy="2035.000000" r="2.000000" fill="#ABB2BF" fill-opacity="1.000000"/>
	<circle id="Ellipse 22" cx="77.500000" cy="2035.000000" r="2.000000" fill="#ABB2BF" fill-opacity="1.000000"/>
	<circle id="Ellipse 20" cx="102.250000" cy="2035.000000" r="2.000000" fill="#ABB2BF" fill-opacity="1.000000"/>
	<circle id="Ellipse 36" cx="127.000000" cy="2035.000000" r="2.000000" fill="#ABB2BF" fill-opacity="1.000000"/>
	<circle id="Ellipse 25" cx="28.000000" cy="2059.750000" r="2.000000" fill="#ABB2BF" fill-opacity="1.000000"/>
	<circle id="Ellipse 26" cx="52.750000" cy="2059.750000" r="2.000000" fill="#ABB2BF" fill-opacity="1.000000"/>
	<circle id="Ellipse 24" cx="77.500000" cy="2059.750000" r="2.000000" fill="#ABB2BF" fill-opacity="1.000000"/>
	<circle id="Ellipse 19" cx="102.250000" cy="2059.750000" r="2.000000" fill="#ABB2BF" fill-opacity="1.000000"/>
	<circle id="Ellipse 36" cx="127.000000" cy="2059.750000" r="2.000000" fill="#ABB2BF" fill-opacity="1.000000"/>
	<circle id="Ellipse 29" cx="28.000000" cy="2084.500000" r="2.000000" fill="#ABB2BF" fill-opacity="1.000000"/>
	<circle id="Ellipse 30" cx="52.750000" cy="2084.500000" r="2.000000" fill="#ABB2BF" fill-opacity="1.000000"/>
	<circle id="Ellipse 28" cx="77.500000" cy="2084.500000" r="2.000000" fill="#ABB2BF" fill-opacity="1.000000"/>
	<circle id="Ellipse 19" cx="102.250000" cy="2084.500000" r="2.000000" fill="#ABB2BF" fill-opacity="1.000000"/>
	<circle id="Ellipse 36" cx="127.000000" cy="2084.500000" r="2.000000" fill="#ABB2BF" fill-opacity="1.000000"/>
	<circle id="Ellipse 33" cx="28.000000" cy="2109.250000" r="2.000000" fill="#ABB2BF" fill-opacity="1.000000"/>
	<circle id="Ellipse 34" cx="52.750000" cy="2109.250000" r="2.000000" fill="#ABB2BF" fill-opacity="1.000000"/>
	<circle id="Ellipse 32" cx="77.500000" cy="2109.250000" r="2.000000" fill="#ABB2BF" fill-opacity="1.000000"/>
	<circle id="Ellipse 19" cx="102.250000" cy="2109.250000" r="2.000000" fill="#ABB2BF" fill-opacity="1.000000"/>
	<circle id="Ellipse 36" cx="127.000000" cy="2109.250000" r="2.000000" fill="#ABB2BF" fill-opacity="1.000000"/>
	<circle id="Ellipse 33" cx="28.000000" cy="2134.000000" r="2.000000" fill="#ABB2BF" fill-opacity="1.000000"/>
	<circle id="Ellipse 34" cx="52.750000" cy="2134.000000" r="2.000000" fill="#ABB2BF" fill-opacity="1.000000"/>
	<circle id="Ellipse 32" cx="77.500000" cy="2134.000000" r="2.000000" fill="#ABB2BF" fill-opacity="1.000000"/>
	<circle id="Ellipse 19" cx="102.250000" cy="2134.000000" r="2.000000" fill="#ABB2BF" fill-opacity="1.000000"/>
	<circle id="Ellipse 36" cx="127.000000" cy="2134.000000" r="2.000000" fill="#ABB2BF" fill-opacity="1.000000"/>
	<circle id="Ellipse 23" cx="33.000000" cy="285.000000" r="2.000000" fill="#ABB2BF" fill-opacity="1.000000"/>
	<circle id="Ellipse 21" cx="37.000000" cy="285.000000" r="2.000000" fill="#ABB2BF" fill-opacity="1.000000"/>
	<circle id="Ellipse 22" cx="41.000000" cy="285.000000" r="2.000000" fill="#ABB2BF" fill-opacity="1.000000"/>
	<circle id="Ellipse 20" cx="45.000000" cy="285.000000" r="2.000000" fill="#ABB2BF" fill-opacity="1.000000"/>
	<circle id="Ellipse 36" cx="49.000000" cy="285.000000" r="2.000000" fill="#ABB2BF" fill-opacity="1.000000"/>
	<circle id="Ellipse 25" cx="33.000000" cy="305.000000" r="2.000000" fill="#ABB2BF" fill-opacity="1.000000"/>
	<circle id="Ellipse 26" cx="37.000000" cy="305.000000" r="2.000000" fill="#ABB2BF" fill-opacity="1.000000"/>
	<circle id="Ellipse 24" cx="41.000000" cy="305.000000" r="2.000000" fill="#ABB2BF" fill-opacity="1.000000"/>
	<circle id="Ellipse 19" cx="45.000000" cy="305.000000" r="2.000000" fill="#ABB2BF" fill-opacity="1.000000"/>
	<circle id="Ellipse 36" cx="49.000000" cy="305.000000" r="2.000000" fill="#ABB2BF" fill-opacity="1.000000"/>
	<circle id="Ellipse 29" cx="33.000000" cy="325.000000" r="2.000000" fill="#ABB2BF" fill-opacity="1.000000"/>
	<circle id="Ellipse 30" cx="37.000000" cy="325.000000" r="2.000000" fill="#ABB2BF" fill-opacity="1.000000"/>
	<circle id="Ellipse 28" cx="41.000000" cy="325.000000" r="2.000000" fill="#ABB2BF" fill-opacity="1.000000"/>
	<circle id="Ellipse 19" cx="45.000000" cy="325.000000" r="2.000000" fill="#ABB2BF" fill-opacity="1.000000"/>
	<circle id="Ellipse 36" cx="49.000000" cy="325.000000" r="2.000000" fill="#ABB2BF" fill-opacity="1.000000"/>
	<circle id="Ellipse 33" cx="33.000000" cy="345.000000" r="2.000000" fill="#ABB2BF" fill-opacity="1.000000"/>
	<circle id="Ellipse 34" cx="37.000000" cy="345.000000" r="2.000000" fill="#ABB2BF" fill-opacity="1.000000"/>
	<circle id="Ellipse 32" cx="41.000000" cy="345.000000" r="2.000000" fill="#ABB2BF" fill-opacity="1.000000"/>
	<circle id="Ellipse 19" cx="45.000000" cy="345.000000" r="2.000000" fill="#ABB2BF" fill-opacity="1.000000"/>
	<circle id="Ellipse 36" cx="49.000000" cy="345.000000" r="2.000000" fill="#ABB2BF" fill-opacity="1.000000"/>
	<circle id="Ellipse 33" cx="33.000000" cy="365.000000" r="2.000000" fill="#ABB2BF" fill-opacity="1.000000"/>
	<circle id="Ellipse 34" cx="37.000000" cy="365.000000" r="2.000000" fill="#ABB2BF" fill-opacity="1.000000"/>
	<circle id="Ellipse 32" cx="41.000000" cy="365.000000" r="2.000000" fill="#ABB2BF" fill-opacity="1.000000"/>
	<circle id="Ellipse 19" cx="45.000000" cy="365.000000" r="2.000000" fill="#ABB2BF" fill-opacity="1.000000"/>
	<circle id="Ellipse 36" cx="49.000000" cy="365.000000" r="2.000000" fill="#ABB2BF" fill-opacity="1.000000"/>
	<rect id="Rectangle 25" x="0.500000" y="1453.500000" width="154.000000" height="154.000000" stroke="#ABB2BF" stroke-opacity="1.000000" stroke-width="1.000000"/>
	<rect id="Rectangle 25" x="1375.500000" y="488.500000" width="154.000000" height="154.000000" stroke="#ABB2BF" stroke-opacity="1.000000" stroke-width="1.000000"/>
	<rect id="Rectangle 26" x="1361.500000" y="0.500000" width="90.000000" height="90.000000" stroke="#ABB2BF" stroke-opacity="1.000000" stroke-width="1.000000"/>
</svg>
