<svg width="349.000000" height="283.000000" viewBox="0 0 349 283" fill="none" xmlns="http://www.w3.org/2000/svg" xmlns:xlink="http://www.w3.org/1999/xlink">
	
	<circle id="Ellipse 23" cx="2.000000" cy="40.000000" r="2.000000" fill="#ABB2BF" fill-opacity="1.000000"/>
	<circle id="Ellipse 21" cx="16.750000" cy="40.000000" r="2.000000" fill="#ABB2BF" fill-opacity="1.000000"/>
	<circle id="Ellipse 22" cx="31.500000" cy="40.000000" r="2.000000" fill="#ABB2BF" fill-opacity="1.000000"/>
	<circle id="Ellipse 20" cx="46.250000" cy="40.000000" r="2.000000" fill="#ABB2BF" fill-opacity="1.000000"/>
	<circle id="Ellipse 36" cx="61.000000" cy="40.000000" r="2.000000" fill="#ABB2BF" fill-opacity="1.000000"/>
	<circle id="Ellipse 25" cx="2.000000" cy="54.750000" r="2.000000" fill="#ABB2BF" fill-opacity="1.000000"/>
	<circle id="Ellipse 26" cx="16.750000" cy="54.750000" r="2.000000" fill="#ABB2BF" fill-opacity="1.000000"/>
	<circle id="Ellipse 24" cx="31.500000" cy="54.750000" r="2.000000" fill="#ABB2BF" fill-opacity="1.000000"/>
	<circle id="Ellipse 19" cx="46.250000" cy="54.750000" r="2.000000" fill="#ABB2BF" fill-opacity="1.000000"/>
	<circle id="Ellipse 36" cx="61.000000" cy="54.750000" r="2.000000" fill="#ABB2BF" fill-opacity="1.000000"/>
	<circle id="Ellipse 29" cx="2.000000" cy="69.500000" r="2.000000" fill="#ABB2BF" fill-opacity="1.000000"/>
	<circle id="Ellipse 30" cx="16.750000" cy="69.500000" r="2.000000" fill="#ABB2BF" fill-opacity="1.000000"/>
	<circle id="Ellipse 28" cx="31.500000" cy="69.500000" r="2.000000" fill="#ABB2BF" fill-opacity="1.000000"/>
	<circle id="Ellipse 19" cx="46.250000" cy="69.500000" r="2.000000" fill="#ABB2BF" fill-opacity="1.000000"/>
	<circle id="Ellipse 36" cx="61.000000" cy="69.500000" r="2.000000" fill="#ABB2BF" fill-opacity="1.000000"/>
	<circle id="Ellipse 33" cx="2.000000" cy="84.250000" r="2.000000" fill="#ABB2BF" fill-opacity="1.000000"/>
	<circle id="Ellipse 34" cx="16.750000" cy="84.250000" r="2.000000" fill="#ABB2BF" fill-opacity="1.000000"/>
	<circle id="Ellipse 32" cx="31.500000" cy="84.250000" r="2.000000" fill="#ABB2BF" fill-opacity="1.000000"/>
	<circle id="Ellipse 19" cx="46.250000" cy="84.250000" r="2.000000" fill="#ABB2BF" fill-opacity="1.000000"/>
	<circle id="Ellipse 36" cx="61.000000" cy="84.250000" r="2.000000" fill="#ABB2BF" fill-opacity="1.000000"/>
	<circle id="Ellipse 33" cx="2.000000" cy="99.000000" r="2.000000" fill="#ABB2BF" fill-opacity="1.000000"/>
	<circle id="Ellipse 34" cx="16.750000" cy="99.000000" r="2.000000" fill="#ABB2BF" fill-opacity="1.000000"/>
	<circle id="Ellipse 32" cx="31.500000" cy="99.000000" r="2.000000" fill="#ABB2BF" fill-opacity="1.000000"/>
	<circle id="Ellipse 19" cx="46.250000" cy="99.000000" r="2.000000" fill="#ABB2BF" fill-opacity="1.000000"/>
	<circle id="Ellipse 36" cx="61.000000" cy="99.000000" r="2.000000" fill="#ABB2BF" fill-opacity="1.000000"/>
	<circle id="Ellipse 23" cx="179.000000" cy="145.000000" r="2.000000" fill="#ABB2BF" fill-opacity="1.000000"/>
	<circle id="Ellipse 21" cx="193.750000" cy="145.000000" r="2.000000" fill="#ABB2BF" fill-opacity="1.000000"/>
	<circle id="Ellipse 22" cx="208.500000" cy="145.000000" r="2.000000" fill="#ABB2BF" fill-opacity="1.000000"/>
	<circle id="Ellipse 20" cx="223.250000" cy="145.000000" r="2.000000" fill="#ABB2BF" fill-opacity="1.000000"/>
	<circle id="Ellipse 36" cx="238.000000" cy="145.000000" r="2.000000" fill="#ABB2BF" fill-opacity="1.000000"/>
	<circle id="Ellipse 25" cx="179.000000" cy="159.750000" r="2.000000" fill="#ABB2BF" fill-opacity="1.000000"/>
	<circle id="Ellipse 26" cx="193.750000" cy="159.750000" r="2.000000" fill="#ABB2BF" fill-opacity="1.000000"/>
	<circle id="Ellipse 24" cx="208.500000" cy="159.750000" r="2.000000" fill="#ABB2BF" fill-opacity="1.000000"/>
	<circle id="Ellipse 19" cx="223.250000" cy="159.750000" r="2.000000" fill="#ABB2BF" fill-opacity="1.000000"/>
	<circle id="Ellipse 36" cx="238.000000" cy="159.750000" r="2.000000" fill="#ABB2BF" fill-opacity="1.000000"/>
	<circle id="Ellipse 29" cx="179.000000" cy="174.500000" r="2.000000" fill="#ABB2BF" fill-opacity="1.000000"/>
	<circle id="Ellipse 30" cx="193.750000" cy="174.500000" r="2.000000" fill="#ABB2BF" fill-opacity="1.000000"/>
	<circle id="Ellipse 28" cx="208.500000" cy="174.500000" r="2.000000" fill="#ABB2BF" fill-opacity="1.000000"/>
	<circle id="Ellipse 19" cx="223.250000" cy="174.500000" r="2.000000" fill="#ABB2BF" fill-opacity="1.000000"/>
	<circle id="Ellipse 36" cx="238.000000" cy="174.500000" r="2.000000" fill="#ABB2BF" fill-opacity="1.000000"/>
	<circle id="Ellipse 33" cx="179.000000" cy="189.250000" r="2.000000" fill="#ABB2BF" fill-opacity="1.000000"/>
	<circle id="Ellipse 34" cx="193.750000" cy="189.250000" r="2.000000" fill="#ABB2BF" fill-opacity="1.000000"/>
	<circle id="Ellipse 32" cx="208.500000" cy="189.250000" r="2.000000" fill="#ABB2BF" fill-opacity="1.000000"/>
	<circle id="Ellipse 19" cx="223.250000" cy="189.250000" r="2.000000" fill="#ABB2BF" fill-opacity="1.000000"/>
	<circle id="Ellipse 36" cx="238.000000" cy="189.250000" r="2.000000" fill="#ABB2BF" fill-opacity="1.000000"/>
	<circle id="Ellipse 33" cx="179.000000" cy="204.000000" r="2.000000" fill="#ABB2BF" fill-opacity="1.000000"/>
	<circle id="Ellipse 34" cx="193.750000" cy="204.000000" r="2.000000" fill="#ABB2BF" fill-opacity="1.000000"/>
	<circle id="Ellipse 32" cx="208.500000" cy="204.000000" r="2.000000" fill="#ABB2BF" fill-opacity="1.000000"/>
	<circle id="Ellipse 19" cx="223.250000" cy="204.000000" r="2.000000" fill="#ABB2BF" fill-opacity="1.000000"/>
	<circle id="Ellipse 36" cx="238.000000" cy="204.000000" r="2.000000" fill="#ABB2BF" fill-opacity="1.000000"/>
	<rect id="Rectangle 23" x="297.500000" y="193.500000" width="51.000000" height="51.000000" stroke="#ABB2BF" stroke-opacity="1.000000" stroke-width="1.000000"/>
	<rect id="Rectangle 24" x="227.500000" y="0.500000" width="85.000000" height="85.000000" stroke="#ABB2BF" stroke-opacity="1.000000" stroke-width="1.000000"/>
	<mask id="mask_1103_3641" fill="white">
		<path id="Union" d="M71.5 169L128 169L128 253.75L71.5 253.75L71.5 225.5L99.75 225.5L99.75 197.25L71.5 197.25L71.5 169Z" clip-rule="evenodd" fill="" fill-opacity="1.000000" fill-rule="evenodd"/>
	</mask>
	<path id="Union" d="M98.75 225.5L71.5 225.5L71.5 253.75L128 253.75L128 169L71.5 169L71.5 197.25L99.75 197.25L99.75 225.5L98.75 225.5ZM72.5 196.25L100.75 196.25L100.75 226.5L72.5 226.5L72.5 252.75L127 252.75L127 170L72.5 170L72.5 196.25Z" clip-rule="evenodd" fill="#C778DD" fill-opacity="1.000000" fill-rule="evenodd"/>
	<mask id="mask_1103_3647" fill="white">
		<path id="Union" d="M15 197.25L71.5 197.25L71.5 225.5L43.25 225.5L43.25 253.75L71.5 253.75L71.5 282L15 282L15 197.25Z" clip-rule="evenodd" fill="" fill-opacity="1.000000" fill-rule="evenodd"/>
	</mask>
	<path id="Union" d="M72.5 196.25L14 196.25L14 283L72.5 283L72.5 252.75L44.25 252.75L44.25 226.5L72.5 226.5L72.5 196.25ZM44.25 225.5L71.5 225.5L71.5 197.25L15 197.25L15 282L71.5 282L71.5 253.75L43.25 253.75L43.25 225.5L44.25 225.5Z" clip-rule="evenodd" fill="#C778DD" fill-opacity="1.000000" fill-rule="evenodd"/>
</svg>
