<svg width="32" height="32" viewBox="0 0 32 32" fill="none" xmlns="http://www.w3.org/2000/svg" xmlns:xlink="http://www.w3.org/1999/xlink">
	<g id="discord">
    <path  d="M24.1641 7.65906C22.543 6.87823 20.8325 6.32098 19.0752 6.00116C19.0591 5.99835 19.0427 6.00073 19.0283 6.00812C19.0137 6.01544 19.0017 6.02734 18.9939 6.04211C18.7734 6.45209 18.5298 6.98834 18.3594 7.40814C16.4651 7.10645 14.5383 7.10645 12.6438 7.40814C12.4539 6.94049 12.239 6.48444 12.0002 6.04211C11.9922 6.02747 11.98 6.01575 11.9656 6.00842C11.9512 6.0011 11.9348 5.99854 11.9189 6.00116C10.1611 6.31927 8.4502 6.87683 6.82983 7.65906C6.81616 7.66461 6.80444 7.67505 6.79712 7.6886C3.5564 12.7706 2.66748 17.7279 3.10327 22.623C3.10498 22.6459 3.1189 22.6689 3.13623 22.6837C5.02319 24.1507 7.13403 25.2708 9.37842 25.9962C9.39429 26.0015 9.41113 26.0013 9.427 25.9957C9.44263 25.9901 9.4563 25.9793 9.46582 25.965C9.94702 25.2763 10.3752 24.5498 10.7439 23.7856C10.7517 23.7699 10.7542 23.752 10.7515 23.7346C10.7485 23.7171 10.7405 23.7011 10.7283 23.6889C10.7202 23.6809 10.7107 23.6747 10.7002 23.6708C10.0271 23.3993 9.375 23.0731 8.75024 22.6951C8.73267 22.6848 8.71973 22.6677 8.71387 22.6476C8.70825 22.6274 8.70996 22.6057 8.71899 22.5869C8.72437 22.5747 8.73242 22.564 8.74243 22.5557C8.87354 22.4524 9.00488 22.3442 9.12988 22.236C9.14087 22.2266 9.1543 22.2206 9.16821 22.2186C9.18237 22.2166 9.19653 22.2186 9.20947 22.2245C13.3018 24.1858 17.7314 24.1858 21.7734 22.2245C21.7871 22.2183 21.8018 22.2162 21.8164 22.2182C21.8311 22.2202 21.8447 22.2264 21.8562 22.236C21.9812 22.3442 22.1125 22.4524 22.2439 22.5557C22.2544 22.5639 22.2629 22.5747 22.2686 22.5872C22.2744 22.5996 22.2771 22.6134 22.2764 22.6272C22.2759 22.641 22.272 22.6544 22.2651 22.6663C22.2583 22.6782 22.2488 22.688 22.2375 22.6951C21.6143 23.0765 20.9614 23.4024 20.2861 23.6692C20.2751 23.6733 20.2654 23.6798 20.2573 23.6884C20.2493 23.6968 20.2432 23.7071 20.2393 23.7184C20.2356 23.7294 20.2341 23.741 20.2349 23.7525C20.2356 23.7641 20.2388 23.7753 20.2439 23.7856C20.6189 24.5482 21.0486 25.2763 21.5203 25.965C21.53 25.9793 21.5435 25.9901 21.5593 25.9957C21.575 26.0013 21.592 26.0015 21.6079 25.9962C23.856 25.2731 25.9702 24.1528 27.8594 22.6837C27.8689 22.6768 27.8767 22.6677 27.8823 22.6572C27.8882 22.6467 27.8914 22.635 27.8921 22.623C28.4141 16.9637 27.0188 12.0474 24.1953 7.69019C24.1926 7.68304 24.1882 7.67651 24.1829 7.67114C24.1775 7.66577 24.1711 7.66168 24.1641 7.65906ZM11.355 19.6417C10.1221 19.6417 9.10791 18.4544 9.10791 16.9982C9.10791 15.5403 10.1033 14.353 11.355 14.353C12.6157 14.353 13.6204 15.5502 13.6018 16.9982C13.6018 18.4544 12.6064 19.6417 11.355 19.6417ZM19.6611 19.6417C18.4297 19.6417 17.4141 18.4544 17.4141 16.9982C17.4141 15.5403 18.4094 14.353 19.6611 14.353C20.9219 14.353 21.9282 15.5502 21.908 16.9982C21.908 18.4544 20.9219 19.6417 19.6611 19.6417Z" fill="#ABB2BF" fill-opacity="1.000000" fill-rule="nonzero"/>
  </g> 
  <g id="dribble">
    <path  d="M16.5 4C10.152 4 5 9.15198 5 15.5C5 21.848 10.152 27 16.5 27C22.8365 27 28 21.848 28 15.5C28 9.15198 22.8365 4 16.5 4ZM24.0957 9.30151C25.5115 11.0255 26.2952 13.1816 26.3167 15.4124C25.9918 15.3505 22.7488 14.6892 19.4813 15.1003C19.4066 14.9393 19.3434 14.764 19.2687 14.5901C19.0688 14.1157 18.8446 13.6298 18.6204 13.167C22.2371 11.6964 23.8844 9.57605 24.0972 9.30005L24.0957 9.30151ZM16.5 5.69629C18.994 5.69629 21.2769 6.63062 23.0118 8.16589C22.8365 8.41602 21.3516 10.3983 17.8599 11.7079C16.2499 8.75232 14.4674 6.33167 14.1929 5.95789C14.9491 5.78125 15.7234 5.69348 16.5 5.69629ZM12.3212 6.61914C13.6375 8.44336 14.8535 10.3379 15.9639 12.2944C11.3739 13.5162 7.32007 13.4918 6.88318 13.4918C7.19922 12.005 7.85437 10.6113 8.79761 9.41943C9.74097 8.22766 10.9468 7.26978 12.3212 6.62061L12.3212 6.61914ZM6.67175 15.5144L6.67175 15.2125C7.09583 15.2269 11.8612 15.2887 16.7631 13.8167C17.0491 14.3644 17.3108 14.9264 17.5609 15.4871L17.1727 15.5992C12.1099 17.2336 9.41602 21.6985 9.19031 22.0737C7.5686 20.2733 6.67126 17.936 6.67175 15.5129L6.67175 15.5144ZM16.5 25.3282C14.3173 25.3315 12.1964 24.6028 10.4769 23.2582C10.6494 22.896 12.6461 19.0549 18.1833 17.1215C18.2092 17.1085 18.2207 17.1085 18.2466 17.097C19.1801 19.5068 19.8813 22.0002 20.3409 24.5433C19.1277 25.0647 17.8206 25.3318 16.5 25.3282ZM21.9769 23.6449C21.8762 23.0454 21.3516 20.1776 20.0679 16.6471C23.1484 16.1613 25.8423 16.9591 26.1787 17.0712C25.9691 18.3975 25.4877 19.6661 24.7643 20.7975C24.0409 21.9287 23.0914 22.8982 21.9755 23.6449L21.9769 23.6449Z" fill="#ABB2BF" fill-opacity="1.000000" fill-rule="evenodd"/>
  </g>
  <g id="email">
    <path  d="M5.0719 9.20288C5.2168 8.57715 5.57312 8.01831 6.08228 7.61816C6.59155 7.2179 7.22363 7 7.875 7L25.125 7C25.7764 7 26.4084 7.2179 26.9177 7.61816C27.4269 8.01831 27.7832 8.57715 27.9281 9.20288L16.5 16.0865L5.0719 9.20288ZM5 10.8208L5 20.8848L13.3418 15.8442L5 10.8208ZM14.719 16.6758L5.27454 22.3807C5.50793 22.8656 5.87622 23.2753 6.33655 23.5619C6.79688 23.8486 7.33044 24.0005 7.875 24L25.125 24C25.6694 24.0001 26.2028 23.8479 26.6628 23.5609C27.123 23.274 27.491 22.8643 27.724 22.3793L18.2797 16.6744L16.5 17.7468L14.719 16.6744L14.719 16.6758ZM19.6582 15.8457L28 20.8848L28 10.8208L19.6582 15.8442L19.6582 15.8457Z" fill="#ABB2BF" fill-opacity="1.000000" fill-rule="nonzero"/>
  </g>
  <g id="figma">
    <path  d="M16 16C16 15.116 16.3687 14.2681 17.0251 13.6429C17.6814 13.0178 18.5718 12.6666 19.5 12.6666C20.4282 12.6666 21.3186 13.0178 21.9749 13.6429C22.6313 14.2681 23 15.116 23 16C23 16.884 22.6313 17.7319 21.9749 18.3571C21.3186 18.9822 20.4282 19.3334 19.5 19.3334C18.5718 19.3334 17.6814 18.9822 17.0251 18.3571C16.3687 17.7319 16 16.884 16 16ZM9 22.6666C9 21.7826 9.36865 20.9348 10.0251 20.3097C10.6814 19.6846 11.5718 19.3334 12.5 19.3334L16 19.3334L16 22.6666C16 23.5508 15.6313 24.3986 14.9749 25.0237C14.3186 25.6488 13.4282 26 12.5 26C11.5718 26 10.6814 25.6488 10.0251 25.0237C9.36865 24.3986 9 23.5508 9 22.6666ZM16 6L16 12.6666L19.5 12.6666C20.4282 12.6666 21.3186 12.3154 21.9749 11.6903C22.6313 11.0652 23 10.2174 23 9.33337C23 8.44922 22.6313 7.60144 21.9749 6.97632C21.3186 6.3512 20.4282 6 19.5 6L16 6ZM9 9.33337C9 10.2174 9.36865 11.0652 10.0251 11.6903C10.6814 12.3154 11.5718 12.6666 12.5 12.6666L16 12.6666L16 6L12.5 6C11.5718 6 10.6814 6.3512 10.0251 6.97632C9.36865 7.60144 9 8.44922 9 9.33337ZM9 16C9 16.884 9.36865 17.7319 10.0251 18.3571C10.6814 18.9822 11.5718 19.3334 12.5 19.3334L16 19.3334L16 12.6666L12.5 12.6666C11.5718 12.6666 10.6814 13.0178 10.0251 13.6429C9.36865 14.2681 9 15.116 9 16Z" fill="#ABB2BF" fill-opacity="1.000000" fill-rule="nonzero"/>
  </g>
  <g id="githab">
    <path  d="M15.5 6C9.69873 6 5 10.5881 5 16.2529C5 20.7899 8.00562 24.6219 12.1794 25.9805C12.7043 26.0701 12.9014 25.7626 12.9014 25.4934C12.9014 25.2499 12.8882 24.4425 12.8882 23.5837C10.25 24.058 9.56738 22.9558 9.35742 22.379C9.23926 22.0844 8.72754 21.1743 8.28125 20.9308C7.91382 20.7386 7.38867 20.2644 8.26807 20.2516C9.09497 20.2388 9.68555 20.9949 9.88257 21.3025C10.8274 22.8533 12.3369 22.4175 12.9407 22.1484C13.0325 21.4819 13.3081 21.0333 13.6101 20.7771C11.2737 20.5208 8.83252 19.6364 8.83252 15.7146C8.83252 14.5996 9.23926 13.6769 9.90869 12.9592C9.80371 12.7029 9.43628 11.652 10.0137 10.2422C10.0137 10.2422 10.8931 9.97302 12.9014 11.2931C13.7412 11.0624 14.6338 10.947 15.5264 10.947C16.4187 10.947 17.3113 11.0624 18.1514 11.2931C20.1594 9.96021 21.0388 10.2422 21.0388 10.2422C21.6162 11.652 21.2488 12.7029 21.1438 12.9592C21.8132 13.6769 22.22 14.5868 22.22 15.7146C22.22 19.6492 19.7656 20.5208 17.4294 20.7771C17.8101 21.0974 18.1382 21.7126 18.1382 22.6738C18.1382 24.0452 18.125 25.1473 18.125 25.4934C18.125 25.7626 18.3218 26.0829 18.8469 25.9805C20.9314 25.2935 22.7429 23.9854 24.0261 22.2404C25.3093 20.4954 25.9995 18.4012 26 16.2529C26 10.5881 21.3013 6 15.5 6Z" fill="#ABB2BF" fill-opacity="1.000000" fill-rule="nonzero"/>
  </g>
  <g id="linkedIn">
    <path d="M4 5.71899C4 4.76953 4.78906 4 5.76245 4L26.2375 4C27.2109 4 28 4.76953 28 5.71899L28 26.281C28 27.2305 27.2109 28 26.2375 28L5.76245 28C4.78906 28 4 27.2305 4 26.281L4 5.71899ZM11.4146 24.0909L11.4146 13.2535L7.81299 13.2535L7.81299 24.0909L11.4146 24.0909ZM9.6145 11.7729C10.8701 11.7729 11.6516 10.942 11.6516 9.901C11.6289 8.83752 10.8716 8.02905 9.63843 8.02905C8.40552 8.02905 7.6001 8.83899 7.6001 9.901C7.6001 10.942 8.38159 11.7729 9.59058 11.7729L9.6145 11.7729ZM16.9766 24.0909L16.9766 18.0385C16.9766 17.7145 17.0005 17.3905 17.0964 17.1595C17.356 16.5129 17.9485 15.8425 18.9446 15.8425C20.248 15.8425 20.7686 16.8354 20.7686 18.2935L20.7686 24.0909L24.3701 24.0909L24.3701 17.875C24.3701 14.545 22.594 12.9969 20.2241 12.9969C18.313 12.9969 17.4565 14.047 16.9766 14.7865L16.9766 14.824L16.9524 14.824C16.9604 14.8115 16.9685 14.799 16.9766 14.7865L16.9766 13.2535L13.3765 13.2535C13.4214 14.2705 13.3765 24.0909 13.3765 24.0909L16.9766 24.0909Z" fill="#ABB2BF" fill-opacity="1.000000" fill-rule="nonzero"/>
  </g>
  <g id="union">
    <path  d="M26 0L52 0L52 39L26 39L26 26L39 26L39 13L26 13L26 0ZM0 13L26 13L26 26L13 26L13 39L26 39L26 52L0 52L0 13Z" clip-rule="evenodd" fill="#FFFFFF" fill-opacity="1.000000" fill-rule="evenodd"/>
  </g>
  <g id="logo">
    <path fill-rule="evenodd" clip-rule="evenodd" d="M12 0.5H8V4.5H4H0V8.5V12.5V16.5H4H8V12.5H12H16V8.5V4.5V0.5H12ZM4 12.5H8V8.5H12V4.5H8V8.5H4V12.5Z" fill="white"/>
  </g>
  <g id="unionOutline">
    <rect width="52.000000" height="52.000000" transform="translate(0.000000 1.000000)" fill="#FFFFFF" fill-opacity="0"/>
	  <mask id="mask_1103_3420" fill="white">
		<path id="Union" d="M0 14L26 14L26 27L13 27L13 40L26 40L26 53L0 53L0 14Z" clip-rule="evenodd" fill="" fill-opacity="1.000000" fill-rule="evenodd"/>
	  </mask>
	  <path id="Union" d="M14 27L26 27L26 14L0 14L0 53L26 53L26 40L13 40L13 27L14 27ZM25 41L12 41L12 26L25 26L25 15L1 15L1 52L25 52L25 41Z" clip-rule="evenodd" fill="#C778DD" fill-opacity="1.000000" fill-rule="evenodd"/>
	  <mask id="mask_1103_3426" fill="white">
		<path id="Union" d="M26 1L52 1L52 40L26 40L26 27L39 27L39 14L26 14L26 1Z" clip-rule="evenodd" fill="" fill-opacity="1.000000" fill-rule="evenodd"/>
	  </mask>
	  <path id="Union" d="M53 0L25 0L25 15L38 15L38 26L25 26L25 41L53 41L53 0ZM39 26L39 27L26 27L26 40L52 40L52 1L26 1L26 14L39 14L39 26Z" clip-rule="evenodd" fill="#C778DD" fill-opacity="1.000000" fill-rule="evenodd"/>
  </g>
  <g id="telegram">
    <path  d="M27 15.5C27 18.55 25.7883 21.4751 23.6318 23.6317C21.4751 25.7885 18.55 27 15.5 27C12.45 27 9.5249 25.7885 7.36816 23.6317C5.21167 21.4751 4 18.55 4 15.5C4 12.45 5.21167 9.5249 7.36816 7.36829C9.5249 5.21155 12.45 4 15.5 4C18.55 4 21.4751 5.21155 23.6318 7.36829C25.7883 9.5249 27 12.45 27 15.5ZM15.9126 12.4899C14.7942 12.9556 12.5574 13.9187 9.20508 15.3793C8.66187 15.5948 8.37573 15.8076 8.34985 16.0146C8.30664 16.3639 8.74512 16.502 9.3418 16.6903L9.59326 16.7693C10.1799 16.9604 10.9705 17.1833 11.3801 17.1919C11.7539 17.2006 12.1694 17.0482 12.6279 16.7319C15.7603 14.6174 17.3774 13.5493 17.478 13.5264C17.5498 13.509 17.6504 13.4889 17.7166 13.5493C17.7842 13.6083 17.7771 13.7218 17.7698 13.752C17.7268 13.9374 16.0061 15.5359 15.1162 16.3639C14.8389 16.6227 14.6418 16.8053 14.6016 16.8469C14.5129 16.9375 14.4229 17.0266 14.3313 17.1143C13.7852 17.6404 13.3767 18.0343 14.3528 18.6783C14.823 18.9888 15.1995 19.2433 15.5747 19.4991C15.9829 19.778 16.3914 20.0554 16.9202 20.4033C17.054 20.4895 17.1833 20.583 17.3083 20.6721C17.7842 21.0114 18.2141 21.3162 18.7415 21.2672C19.0491 21.2385 19.3669 20.951 19.5278 20.0885C19.9087 18.0515 20.6577 13.6399 20.8303 11.8214C20.8408 11.6703 20.8345 11.5184 20.8115 11.3687C20.7981 11.2478 20.7395 11.1364 20.6477 11.0566C20.5168 10.9664 20.3608 10.9197 20.2021 10.923C19.7708 10.9302 19.1052 11.1616 15.9126 12.4899Z" fill="#ABB2BF" fill-opacity="1.000000" fill-rule="nonzero"/>
  </g>
  <g id="twitter">
    <path d="M11.2249 26C19.9045 26 24.6526 18.6884 24.6526 12.3588C24.6526 12.1542 24.6526 11.9467 24.644 11.7419C25.5684 11.0616 26.3662 10.2194 27 9.25464C26.1365 9.6416 25.2214 9.89673 24.2847 10.0116C25.2715 9.41187 26.0105 8.46826 26.3647 7.3562C25.4375 7.91455 24.4226 8.30664 23.3645 8.51514C22.6533 7.74487 21.7119 7.23474 20.6865 7.06348C19.6611 6.89233 18.6089 7.06958 17.6926 7.56799C16.7764 8.06641 16.0474 8.85803 15.6184 9.82031C15.1897 10.7825 15.0847 11.8617 15.3203 12.8907C13.4441 12.795 11.6084 12.2994 9.93262 11.4362C8.25684 10.5729 6.77832 9.36108 5.59277 7.87939C4.99097 8.93616 4.80737 10.1862 5.0791 11.3756C5.35083 12.5649 6.05762 13.6046 7.05615 14.2834C6.30786 14.2576 5.57617 14.0533 4.91992 13.6873L4.91992 13.7529C4.92139 14.86 5.29858 15.9326 5.98779 16.7896C6.67725 17.6465 7.63647 18.2351 8.70361 18.4559C8.29858 18.5693 7.88013 18.626 7.45996 18.624C7.16382 18.6249 6.86841 18.597 6.57739 18.5406C6.87891 19.4937 7.46631 20.3269 8.25684 20.9236C9.04736 21.5203 10.0017 21.8507 10.9863 21.8684C9.31372 23.204 7.2478 23.9282 5.12134 23.9247C4.74658 23.9264 4.37207 23.9044 4 23.859C6.15845 25.2579 8.66504 26.0009 11.2249 26Z" fill="#ABB2BF" fill-opacity="1.000000" fill-rule="nonzero"/>
  </g>
</svg>
