<svg width="23.000000" height="17.000000" viewBox="0 0 23 17" fill="none" xmlns="http://www.w3.org/2000/svg" xmlns:xlink="http://www.w3.org/1999/xlink">
	<desc>
			Created with Pixso.
	</desc>
	<defs/>
	<path id="Vector" d="M0.0718994 2.20288C0.216797 1.57715 0.57312 1.01831 1.08228 0.618164C1.59155 0.217896 2.22363 0 2.875 0L20.125 0C20.7764 0 21.4084 0.217896 21.9177 0.618164C22.4269 1.01831 22.7832 1.57715 22.9281 2.20288L11.5 9.08655L0.0718994 2.20288ZM0 3.8208L0 13.8848L8.3418 8.84424L0 3.8208ZM9.71899 9.67578L0.274536 15.3807C0.507935 15.8656 0.876221 16.2753 1.33655 16.5619C1.79688 16.8486 2.33044 17.0005 2.875 17L20.125 17C20.6694 17.0001 21.2028 16.8479 21.6628 16.5609C22.123 16.274 22.491 15.8643 22.724 15.3793L13.2797 9.67444L11.5 10.7468L9.71899 9.67444L9.71899 9.67578ZM14.6582 8.8457L23 13.8848L23 3.8208L14.6582 8.84424L14.6582 8.8457Z" fill="#000" fill-opacity="1.000000" fill-rule="nonzero"/>
</svg>
