<?xml version="1.0" encoding="UTF-8"?>
<svg version="1.1" xmlns="http://www.w3.org/2000/svg" width="289" height="153">
<path d="M0 0 C95.37 0 190.74 0 289 0 C289 50.49 289 100.98 289 153 C193.63 153 98.26 153 0 153 C0 102.51 0 52.02 0 0 Z " fill="#" transform="translate(0,0)"/>
<path d="M0 0 C2.19797038 2.25432859 4.09063779 4.49055252 6 7 C1.85149078 6.34212074 -1.64717795 4.96556892 -5.5 3.3125 C-17.57350088 -1.70418161 -30.32490313 -4.88630297 -43 -8 C-42.566875 -7.154375 -42.13375 -6.30875 -41.6875 -5.4375 C-33 12.25925926 -33 12.25925926 -33 19 C-40.26 19 -47.52 19 -55 19 C-55.33 17.35 -55.66 15.7 -56 14 C-56.66 14 -57.32 14 -58 14 C-58.33773437 12.91460937 -58.67546875 11.82921875 -59.0234375 10.7109375 C-59.47392751 9.26561539 -59.92445007 7.82030343 -60.375 6.375 C-60.59671875 5.66214844 -60.8184375 4.94929688 -61.046875 4.21484375 C-61.37558594 3.16103516 -61.37558594 3.16103516 -61.7109375 2.0859375 C-62.00943604 1.1276001 -62.00943604 1.1276001 -62.31396484 0.14990234 C-63.18351417 -2.57509814 -64.09547008 -5.28641025 -65 -8 C-78.86 -8.33 -92.72 -8.66 -107 -9 C-107.99 -5.37 -108.98 -1.74 -110 2 C-111.18098676 5.10293523 -112.37945093 8.1426676 -113.6875 11.1875 C-114.00783203 11.94869141 -114.32816406 12.70988281 -114.65820312 13.49414062 C-115.43265876 15.33202789 -116.2154072 17.16641737 -117 19 C-122.7978073 19.3235469 -128.59028087 19.55817315 -134.39501953 19.71411133 C-136.36470092 19.77914341 -138.33376288 19.86761327 -140.30126953 19.98071289 C-156.15003411 20.8683401 -156.15003411 20.8683401 -160.82449341 17.80392456 C-164.39875996 14.38754694 -166.64622771 10.30654783 -169 6 C-170.03729541 4.58111738 -171.09863457 3.17896747 -172.19921875 1.80859375 C-173.03051626 0.68627885 -173.86005788 -0.43733964 -174.6875 -1.5625 C-175.12771484 -2.13806641 -175.56792969 -2.71363281 -176.02148438 -3.30664062 C-179.01135306 -7.39828769 -179.01135306 -7.39828769 -178.95703125 -10.27734375 C-178 -12 -178 -12 -175 -14 C-172.00390625 -14.08203125 -172.00390625 -14.08203125 -168.5625 -13.8125 C-167.42941406 -13.73644531 -166.29632813 -13.66039063 -165.12890625 -13.58203125 C-161.85001498 -12.97210016 -160.27141139 -12.42767557 -158 -10 C-158 -8.68 -158 -7.36 -158 -6 C-156.9171875 -5.6596875 -156.9171875 -5.6596875 -155.8125 -5.3125 C-150.21157933 -2.69873702 -146.86614505 2.35091718 -143.3125 7.25 C-140.68134666 11.22849953 -140.68134666 11.22849953 -137 14 C-136.87689453 13.27619141 -136.75378906 12.55238281 -136.62695312 11.80664062 C-136.00538886 9.02412395 -135.12534537 6.69455969 -133.96875 4.09375 C-133.37126953 2.73056641 -133.37126953 2.73056641 -132.76171875 1.33984375 C-131.92057292 -0.55338542 -131.07942708 -2.44661458 -130.23828125 -4.33984375 C-129.83996094 -5.24863281 -129.44164062 -6.15742187 -129.03125 -7.09375 C-128.48307617 -8.32641602 -128.48307617 -8.32641602 -127.92382812 -9.58398438 C-126.98217308 -12.04662134 -126.4413642 -14.40496336 -126 -17 C-150.91131445 -16.72703034 -150.91131445 -16.72703034 -175.75 -15.0625 C-176.47155273 -14.98789551 -177.19310547 -14.91329102 -177.93652344 -14.83642578 C-183.38875064 -14.20072261 -188.57804499 -13.084391 -194 -12 C-194 -1.77 -194 8.46 -194 19 C-200.6 19 -207.2 19 -214 19 C-214.02707263 15.62494572 -214.04687449 12.2501106 -214.0625 8.875 C-214.07087891 7.92367187 -214.07925781 6.97234375 -214.08789062 5.9921875 C-214.10449608 1.20981513 -214.00537055 -3.29771569 -213 -8 C-223.35832539 -5.9369909 -233.32140734 -3.05258544 -243.3125 0.375 C-244.38419434 0.73779053 -245.45588867 1.10058105 -246.56005859 1.47436523 C-253.2010737 3.79703705 -259.40271811 6.56574326 -265.62573242 9.85009766 C-268 11 -268 11 -270 11 C-262.03717209 -6.95617694 -235.17400353 -17.12734747 -218 -24 C-206.65173469 -28.31014559 -195.07197387 -31.63336145 -183 -33 C-182.67 -33.33 -182.34 -33.66 -182 -34 C-180.5120314 -34.28573784 -179.01309349 -34.51486138 -177.51171875 -34.71875 C-176.57650391 -34.84636719 -175.64128906 -34.97398438 -174.67773438 -35.10546875 C-173.19756836 -35.30076172 -173.19756836 -35.30076172 -171.6875 -35.5 C-170.74326172 -35.63019531 -169.79902344 -35.76039062 -168.82617188 -35.89453125 C-113.5144484 -43.32950834 -43.76402174 -38.56308003 0 0 Z " fill="#1E73B8" transform="translate(279,105)"/>
<path d="M0 0 C-1.16919607 3.17527257 -2.3467206 5.73977503 -4.50390625 8.34765625 C-5.23685913 9.2459314 -5.23685913 9.2459314 -5.98461914 10.16235352 C-6.50531982 10.78940186 -7.02602051 11.4164502 -7.5625 12.0625 C-8.65771386 13.40505716 -9.75145042 14.74882072 -10.84375 16.09375 C-11.38257813 16.75632812 -11.92140625 17.41890625 -12.4765625 18.1015625 C-14.56882984 20.7088495 -16.5707202 23.37792722 -18.5625 26.0625 C-23.57560218 32.81372155 -28.77657855 39.4110857 -34 46 C-34.72574219 46.96035156 -35.45148438 47.92070313 -36.19921875 48.91015625 C-36.79347656 49.59980469 -37.38773438 50.28945313 -38 51 C-38.66 51 -39.32 51 -40 51 C-40.66 52.98 -41.32 54.96 -42 57 C-42.7528125 57.08636719 -43.505625 57.17273438 -44.28125 57.26171875 C-51.6729359 58.23950244 -58.41001223 59.87383193 -65.44140625 62.32299805 C-69.43554348 63.67576947 -72.78671312 64.24745734 -77 64 C-77 61.66666667 -77 59.33333333 -77 57 C-77.16298584 55.70392822 -77.32597168 54.40785645 -77.49389648 53.07250977 C-78.10669536 47.65297892 -78.12630524 42.28854597 -78.09765625 36.83984375 C-78.0962413 35.80936417 -78.09482635 34.77888458 -78.09336853 33.71717834 C-78.08781447 30.45725481 -78.0752707 27.19740243 -78.0625 23.9375 C-78.05747906 21.71419371 -78.05291719 19.49088633 -78.04882812 17.26757812 C-78.03871515 11.84500326 -78.01913102 6.42258037 -78 1 C-71.4 1 -64.8 1 -58 1 C-58 16.51 -58 32.02 -58 48 C-57.34 48 -56.68 48 -56 48 C-55.7834375 47.33871094 -55.566875 46.67742188 -55.34375 45.99609375 C-53.54098939 41.97656645 -51.07481274 38.62259116 -48.5 35.0625 C-47.96463623 34.31395752 -47.42927246 33.56541504 -46.87768555 32.79418945 C-45.78039756 31.26071851 -44.68103354 29.72873095 -43.57958984 28.19824219 C-41.72161532 25.61258491 -39.87975312 23.01590698 -38.04418945 20.41430664 C-37.22434873 19.26490457 -36.39341278 18.12333476 -35.55151367 16.98999023 C-33.48150415 14.19394782 -31.78605266 11.58271047 -30.1875 8.46484375 C-23.46185825 -3.51520562 -12.17460037 -1.17774876 0 0 Z " fill="#727375" transform="translate(143,8)"/>
<path d="M0 0 C37.96573572 -0.32406734 75.87468807 -0.21154356 113 9 C112.01 9.33 111.02 9.66 110 10 C110.433125 10.845625 110.86625 11.69125 111.3125 12.5625 C120 30.25925926 120 30.25925926 120 37 C112.74 37 105.48 37 98 37 C97.67 35.35 97.34 33.7 97 32 C96.34 32 95.68 32 95 32 C94.49339844 30.37191406 94.49339844 30.37191406 93.9765625 28.7109375 C93.52607249 27.26561539 93.07554993 25.82030343 92.625 24.375 C92.40328125 23.66214844 92.1815625 22.94929688 91.953125 22.21484375 C91.73398438 21.51230469 91.51484375 20.80976562 91.2890625 20.0859375 C91.09006348 19.4470459 90.89106445 18.8081543 90.68603516 18.14990234 C89.81648583 15.42490186 88.90452992 12.71358975 88 10 C74.14 9.67 60.28 9.34 46 9 C45.01 12.63 44.02 16.26 43 20 C41.81901324 23.10293523 40.62054907 26.1426676 39.3125 29.1875 C38.99216797 29.94869141 38.67183594 30.70988281 38.34179688 31.49414062 C37.56734124 33.33202789 36.7845928 35.16641737 36 37 C30.2021927 37.3235469 24.40971913 37.55817315 18.60498047 37.71411133 C16.63529908 37.77914341 14.66623712 37.86761327 12.69873047 37.98071289 C-3.15003411 38.8683401 -3.15003411 38.8683401 -7.82449341 35.80392456 C-11.39875996 32.38754694 -13.64622771 28.30654783 -16 24 C-17.03729541 22.58111738 -18.09863457 21.17896747 -19.19921875 19.80859375 C-20.03051626 18.68627885 -20.86005788 17.56266036 -21.6875 16.4375 C-22.12771484 15.86193359 -22.56792969 15.28636719 -23.02148438 14.69335938 C-26.01135306 10.60171231 -26.01135306 10.60171231 -25.95703125 7.72265625 C-25 6 -25 6 -22 4 C-19.00390625 3.91796875 -19.00390625 3.91796875 -15.5625 4.1875 C-13.86287109 4.30158203 -13.86287109 4.30158203 -12.12890625 4.41796875 C-8.85001498 5.02789984 -7.27141139 5.57232443 -5 8 C-5 9.32 -5 10.64 -5 12 C-4.278125 12.226875 -3.55625 12.45375 -2.8125 12.6875 C2.78842067 15.30126298 6.13385495 20.35091718 9.6875 25.25 C12.31865334 29.22849953 12.31865334 29.22849953 16 32 C16.12310547 31.27619141 16.24621094 30.55238281 16.37304688 29.80664062 C16.99461114 27.02412395 17.87465463 24.69455969 19.03125 22.09375 C19.42957031 21.18496094 19.82789063 20.27617188 20.23828125 19.33984375 C21.07942708 17.44661458 21.92057292 15.55338542 22.76171875 13.66015625 C23.16003906 12.75136719 23.55835938 11.84257813 23.96875 10.90625 C24.51692383 9.67358398 24.51692383 9.67358398 25.07617188 8.41601562 C26.21897871 5.62894606 26.21897871 5.62894606 27 1 C18.09 1 9.18 1 0 1 C0 0.67 0 0.34 0 0 Z " fill="#1A66A4" transform="translate(126,87)"/>
<path d="M0 0 C2.6058889 -0.13494246 5.20482111 -0.23402299 7.8125 -0.3125 C8.55048828 -0.35439453 9.28847656 -0.39628906 10.04882812 -0.43945312 C12.20703125 -0.48828125 12.20703125 -0.48828125 16 0 C19.23021383 3.72511201 20.37780374 8.65415109 21.9375 13.28125 C23.03017233 16.07720567 24.44195468 18.44157039 26 21 C26.46552052 22.62932181 26.92710147 24.25998136 27.359375 25.8984375 C28.12448484 28.40837098 29.10353791 30.77003971 30.125 33.1875 C30.55296875 34.20070312 30.9809375 35.21390625 31.421875 36.2578125 C31.66486328 36.83305664 31.90785156 37.40830078 32.15820312 38.00097656 C33.91791886 42.17979106 35.65560968 46.36693223 37.375 50.5625 C37.74512207 51.44381592 38.11524414 52.32513184 38.49658203 53.2331543 C38.83544434 54.06500244 39.17430664 54.89685059 39.5234375 55.75390625 C39.9862915 56.87261108 39.9862915 56.87261108 40.45849609 58.01391602 C41 60 41 60 40 63 C37.79118862 62.37669158 35.58297135 61.75127759 33.375 61.125 C31.53035156 60.60292969 31.53035156 60.60292969 29.6484375 60.0703125 C28.44445312 59.71710938 27.24046875 59.36390625 26 59 C24.92363281 58.74347656 23.84726563 58.48695312 22.73828125 58.22265625 C19.09604922 56.59638146 18.42398861 54.91013703 16.8125 51.3125 C16.31878906 50.2296875 15.82507813 49.146875 15.31640625 48.03125 C14.88199219 47.0309375 14.44757813 46.030625 14 45 C13.67902344 44.3296875 13.35804688 43.659375 13.02734375 42.96875 C10.92140925 38.48173377 9.93212871 33.83610308 9 29 C8.34 29 7.68 29 7 29 C6.73316406 29.97195312 6.46632812 30.94390625 6.19140625 31.9453125 C4.94189807 36.31583892 3.45518081 40.5915213 1.9375 44.875 C1.66873047 45.64585938 1.39996094 46.41671875 1.12304688 47.2109375 C-0.87705145 52.87705145 -0.87705145 52.87705145 -2 54 C-4.06561892 53.90839172 -6.12845692 53.75095479 -8.1875 53.5625 C-12.48039941 53.17491251 -16.68886867 52.94112264 -21 53 C-19.67869783 47.21920112 -17.91533856 41.88584805 -15.6640625 36.40625 C-15.18312637 35.21980896 -15.18312637 35.21980896 -14.69247437 34.00939941 C-14.0175901 32.34783685 -13.34011231 30.68732554 -12.66015625 29.02783203 C-11.62886876 26.50944743 -10.60678121 23.98747726 -9.5859375 21.46484375 C-8.92502128 19.8409251 -8.26358021 18.21721992 -7.6015625 16.59375 C-7.30037506 15.85080688 -6.99918762 15.10786377 -6.68887329 14.34240723 C-4.67366909 9.4385524 -2.41846815 4.71850787 0 0 Z " fill="#747578" transform="translate(185,8)"/>
<path d="M0 0 C37.96573572 -0.32406734 75.87468807 -0.21154356 113 9 C112.01 9.33 111.02 9.66 110 10 C110.433125 10.845625 110.86625 11.69125 111.3125 12.5625 C120 30.25925926 120 30.25925926 120 37 C112.74 37 105.48 37 98 37 C97.67 35.35 97.34 33.7 97 32 C96.34 32 95.68 32 95 32 C94.49339844 30.37191406 94.49339844 30.37191406 93.9765625 28.7109375 C93.52607249 27.26561539 93.07554993 25.82030343 92.625 24.375 C92.40328125 23.66214844 92.1815625 22.94929688 91.953125 22.21484375 C91.73398438 21.51230469 91.51484375 20.80976562 91.2890625 20.0859375 C91.09006348 19.4470459 90.89106445 18.8081543 90.68603516 18.14990234 C89.81648583 15.42490186 88.90452992 12.71358975 88 10 C74.14 9.67 60.28 9.34 46 9 C45.67 9.66 45.34 10.32 45 11 C44.505 9.02 44.505 9.02 44 7 C34.60694251 7.12947762 34.60694251 7.12947762 26 10 C24.60627535 12.9156079 23.73665469 15.85952476 23 19 C22.34 19 21.68 19 21 19 C23 13 25 7 27 1 C18.09 1 9.18 1 0 1 C0 0.67 0 0.34 0 0 Z " fill="#174773" transform="translate(126,87)"/>
<path d="M0 0 C1.7805977 0.00502582 3.56119677 0.00958681 5.34179688 0.01367188 C9.66539909 0.02459 13.98893403 0.04179479 18.3125 0.0625 C17.77850078 4.740742 16.87502963 8.66923441 15.02734375 12.99609375 C14.57939453 14.05634766 14.13144531 15.11660156 13.66992188 16.20898438 C13.20134766 17.29501953 12.73277344 18.38105469 12.25 19.5 C11.77755859 20.61310547 11.30511719 21.72621094 10.81835938 22.87304688 C9.65710207 25.60610699 8.48831946 28.33568079 7.3125 31.0625 C3.35160118 29.27957979 1.76657929 27.23422208 -0.6875 23.625 C-3.1169725 20.06145733 -5.2209493 17.5927725 -8.6875 15.0625 C-8.6875 14.4025 -8.6875 13.7425 -8.6875 13.0625 C-9.491875 12.815 -10.29625 12.5675 -11.125 12.3125 C-12.3934375 11.69375 -12.3934375 11.69375 -13.6875 11.0625 C-14.3125 9.0625 -14.3125 9.0625 -14.6875 7.0625 C-18.10431808 4.78462128 -20.01431311 4.59738446 -24.0625 4.25 C-25.18398437 4.14042969 -26.30546875 4.03085938 -27.4609375 3.91796875 C-31.10924135 4.08139156 -32.66593074 5.13637939 -35.6875 7.0625 C-36.6775 6.7325 -37.6675 6.4025 -38.6875 6.0625 C-38.6875 5.4025 -38.6875 4.7425 -38.6875 4.0625 C-39.244375 4.3925 -39.80125 4.7225 -40.375 5.0625 C-42.6875 6.0625 -42.6875 6.0625 -47.6875 6.0625 C-47.6875 16.2925 -47.6875 26.5225 -47.6875 37.0625 C-50.14025141 38.2888757 -51.7380781 38.17665314 -54.4765625 38.16015625 C-55.32428223 38.15765869 -56.17200195 38.15516113 -57.04541016 38.15258789 C-58.1235498 38.14348389 -59.20168945 38.13437988 -60.3125 38.125 C-63.73625 38.104375 -67.16 38.08375 -70.6875 38.0625 C-70.6875 28.8225 -70.6875 19.5825 -70.6875 10.0625 C-72.0075 9.7325 -73.3275 9.4025 -74.6875 9.0625 C-72.7075 9.0625 -70.7275 9.0625 -68.6875 9.0625 C-69.0175 17.9725 -69.3475 26.8825 -69.6875 36.0625 C-63.0875 36.0625 -56.4875 36.0625 -49.6875 36.0625 C-50.1825 20.7175 -50.1825 20.7175 -50.6875 5.0625 C-46.09224093 3.74956884 -42.08363333 2.69458526 -37.4375 2 C-35.91382812 1.76603516 -35.91382812 1.76603516 -34.359375 1.52734375 C-33.14765625 1.37394531 -31.9359375 1.22054687 -30.6875 1.0625 C-29.60795044 0.9246106 -29.60795044 0.9246106 -28.5065918 0.78393555 C-19.0289634 -0.25848376 -9.51998808 -0.04697508 0 0 Z " fill="#201F25" transform="translate(134.6875,87.9375)"/>
<path d="M0 0 C1.06888524 3.47665095 1.11475767 6.67137478 1.09765625 10.296875 C1.09443359 11.50214844 1.09121094 12.70742187 1.08789062 13.94921875 C1.07951172 15.20347656 1.07113281 16.45773438 1.0625 17.75 C1.05798828 19.01972656 1.05347656 20.28945312 1.04882812 21.59765625 C1.03704566 24.73179095 1.01911036 27.86590142 1 31 C-5.6 31 -12.2 31 -19 31 C-19.02707263 27.62494572 -19.04687449 24.2501106 -19.0625 20.875 C-19.07087891 19.92367187 -19.07925781 18.97234375 -19.08789062 17.9921875 C-19.10449608 13.20981513 -19.00537055 8.70228431 -18 4 C-18.99 3.67 -19.98 3.34 -21 3 C-18.43850372 2.49432271 -15.87600535 1.99529868 -13.3125 1.5 C-12.59126953 1.35691406 -11.87003906 1.21382813 -11.12695312 1.06640625 C-7.36158641 0.34428113 -3.85526187 -0.1824976 0 0 Z " fill="#196AAA" transform="translate(84,93)"/>
<path d="M0 0 C0.99 0 1.98 0 3 0 C3 0.66 3 1.32 3 2 C3.99 1.84917969 4.98 1.69835937 6 1.54296875 C10.26461678 1.088976 13.7728296 1.09295534 18 2 C23.75418762 7.5522863 27.37937567 16.2007454 29 24 C29 24.99 29 25.98 29 27 C21.74 27 14.48 27 7 27 C0 6.72413793 0 6.72413793 0 0 Z " fill="#1C6BAB" transform="translate(217,97)"/>
<path d="M0 0 C0.30292969 0.58007812 0.60585937 1.16015625 0.91796875 1.7578125 C3.54807998 6.66195836 6.28302849 10.85823175 10 15 C9.67 15.66 9.34 16.32 9 17 C8.773125 16.38125 8.54625 15.7625 8.3125 15.125 C7.14688017 12.76128418 7.14688017 12.76128418 4.4375 12 C3.633125 11.67 2.82875 11.34 2 11 C1.375 9 1.375 9 1 7 C-2.41681808 4.72212128 -4.32681311 4.53488446 -8.375 4.1875 C-9.49648437 4.07792969 -10.61796875 3.96835938 -11.7734375 3.85546875 C-15.42174135 4.01889156 -16.97843074 5.07387939 -20 7 C-20.99 6.67 -21.98 6.34 -23 6 C-23 5.34 -23 4.68 -23 4 C-23.556875 4.33 -24.11375 4.66 -24.6875 5 C-27 6 -27 6 -32 6 C-32 16.23 -32 26.46 -32 37 C-34.45275141 38.2263757 -36.0505781 38.11415314 -38.7890625 38.09765625 C-39.63678223 38.09515869 -40.48450195 38.09266113 -41.35791016 38.09008789 C-42.4360498 38.08098389 -43.51418945 38.07187988 -44.625 38.0625 C-48.04875 38.041875 -51.4725 38.02125 -55 38 C-55 28.76 -55 19.52 -55 10 C-56.32 9.67 -57.64 9.34 -59 9 C-57.02 9 -55.04 9 -53 9 C-53.33 17.91 -53.66 26.82 -54 36 C-47.4 36 -40.8 36 -34 36 C-34.495 20.655 -34.495 20.655 -35 5 C-23.65920163 1.75977189 -11.81855624 0 0 0 Z " fill="#183045" transform="translate(119,88)"/>
<path d="M0 0 C65.68679962 -0.56068837 65.68679962 -0.56068837 84 5 C84 5.33 84 5.66 84 6 C83.01644531 5.91621094 82.03289062 5.83242187 81.01953125 5.74609375 C69.27244872 4.84997187 57.74720795 5.23714936 46 6 C45.505 4.515 45.505 4.515 45 3 C44.01 3.33 43.02 3.66 42 4 C38.64720828 4.3075172 35.29380703 4.5089708 31.93359375 4.71875 C29.06834254 4.81590661 29.06834254 4.81590661 27 6 C27 4.35 27 2.7 27 1 C18.09 1 9.18 1 0 1 C0 0.67 0 0.34 0 0 Z " fill="#0A3863" transform="translate(126,87)"/>
<path d="M0 0 C-0.99 0.33 -1.98 0.66 -3 1 C-2.2265625 2.423125 -2.2265625 2.423125 -1.4375 3.875 C-0.963125 4.90625 -0.48875 5.9375 0 7 C-0.33 7.66 -0.66 8.32 -1 9 C-4 5.25 -4 5.25 -4 3 C-8.95 3 -13.9 3 -19 3 C-19 2.34 -19 1.68 -19 1 C-20.32 1.33 -21.64 1.66 -23 2 C-22.67 0.68 -22.34 -0.64 -22 -2 C-15.35125051 -4.49328106 -6.6963093 -1.41336037 0 0 Z " fill="#135386" transform="translate(239,96)"/>
<path d="M0 0 C0.30292969 0.58007812 0.60585937 1.16015625 0.91796875 1.7578125 C3.54807998 6.66195836 6.28302849 10.85823175 10 15 C9.67 15.66 9.34 16.32 9 17 C8.773125 16.38125 8.54625 15.7625 8.3125 15.125 C7.14688017 12.76128418 7.14688017 12.76128418 4.4375 12 C3.633125 11.67 2.82875 11.34 2 11 C1.375 9 1.375 9 1 7 C-2.41681808 4.72212128 -4.32681311 4.53488446 -8.375 4.1875 C-9.49648437 4.07792969 -10.61796875 3.96835938 -11.7734375 3.85546875 C-15.38957977 4.01745091 -17.10351348 4.9008609 -20 7 C-21.32 5.35 -22.64 3.7 -24 2 C-20.75033015 1.66339508 -17.50021572 1.33128921 -14.25 1 C-13.32960938 0.90460938 -12.40921875 0.80921875 -11.4609375 0.7109375 C-10.12675781 0.57558594 -10.12675781 0.57558594 -8.765625 0.4375 C-7.94868164 0.35371094 -7.13173828 0.26992187 -6.29003906 0.18359375 C-4.19917501 0.01596798 -2.09757262 0 0 0 Z " fill="#0E416E" transform="translate(119,88)"/>
<path d="M0 0 C1.06888524 3.47665095 1.11475767 6.67137478 1.09765625 10.296875 C1.09443359 11.50214844 1.09121094 12.70742187 1.08789062 13.94921875 C1.07951172 15.20347656 1.07113281 16.45773438 1.0625 17.75 C1.05798828 19.01972656 1.05347656 20.28945312 1.04882812 21.59765625 C1.03704566 24.73179095 1.01911036 27.86590142 1 31 C-5.6 31 -12.2 31 -19 31 C-19 24.07 -19 17.14 -19 10 C-18.67 10 -18.34 10 -18 10 C-18 16.6 -18 23.2 -18 30 C-12.06 30 -6.12 30 0 30 C-0.14052735 26.06224424 -0.28718393 22.12488371 -0.4375 18.1875 C-0.47681641 17.06794922 -0.51613281 15.94839844 -0.55664062 14.79492188 C-0.59853516 13.72177734 -0.64042969 12.64863281 -0.68359375 11.54296875 C-0.72025146 10.55321045 -0.75690918 9.56345215 -0.79467773 8.54370117 C-0.90790331 5.8781649 -0.90790331 5.8781649 -2 3 C-3.98 3.33 -5.96 3.66 -8 4 C-8.66 3.01 -9.32 2.02 -10 1 C-6.59437148 0.22157062 -3.49234244 -0.09978121 0 0 Z " fill="#296291" transform="translate(84,93)"/>
<path d="M0 0 C6.33541445 -0.05070815 12.67077657 -0.08573696 19.00634766 -0.10986328 C21.16164099 -0.1199211 23.31692068 -0.13356899 25.47216797 -0.15087891 C28.57002124 -0.17513662 31.66769409 -0.18648532 34.765625 -0.1953125 C35.72929993 -0.20563507 36.69297485 -0.21595764 37.68585205 -0.22659302 C38.58648376 -0.22674408 39.48711548 -0.22689514 40.41503906 -0.22705078 C41.20557678 -0.231492 41.9961145 -0.23593323 42.81060791 -0.24050903 C45 0 45 0 49 2 C41.74 2.66 34.48 3.32 27 4 C27 3.01 27 2.02 27 1 C18.09 1 9.18 1 0 1 C0 0.67 0 0.34 0 0 Z " fill="#0E3154" transform="translate(126,87)"/>
<path d="M0 0 C0 0.33 0 0.66 0 1 C-0.6612085 1.08564209 -1.32241699 1.17128418 -2.00366211 1.25952148 C-4.98219871 1.64779828 -7.95983985 2.0425605 -10.9375 2.4375 C-12.49887695 2.63956055 -12.49887695 2.63956055 -14.09179688 2.84570312 C-15.08115234 2.97783203 -16.07050781 3.10996094 -17.08984375 3.24609375 C-18.00628662 3.36654053 -18.92272949 3.4869873 -19.86694336 3.61108398 C-21.97635212 3.78675073 -21.97635212 3.78675073 -23 5 C-24.40800959 5.33094242 -25.82746741 5.61343756 -27.25 5.875 C-32.54052491 6.88743139 -37.77638275 8.08385124 -43.01953125 9.31640625 C-45.67255917 9.92489889 -48.32814458 10.48143287 -51 11 C-50.34 10.67 -49.68 10.34 -49 10 C-49 9.34 -49 8.68 -49 8 C-47.53240234 7.70996094 -47.53240234 7.70996094 -46.03515625 7.4140625 C-34.16111885 6.13210055 -34.16111885 6.13210055 -24 2 C-21.289937 1.59378706 -18.59652994 1.24469611 -15.875 0.9375 C-14.75351563 0.80118164 -14.75351563 0.80118164 -13.609375 0.66210938 C-9.03929684 0.1326491 -4.59993222 -0.09151059 0 0 Z " fill="#163045" transform="translate(119,68)"/>
<path d="M0 0 C0 0.33 0 0.66 0 1 C-0.99515625 0.9278125 -1.9903125 0.855625 -3.015625 0.78125 C-14.35590867 0.01076446 -25.63648669 -0.10576176 -37 0 C-37 -0.33 -37 -0.66 -37 -1 C-33.8768067 -1.37141906 -30.75135771 -1.71882238 -27.625 -2.0625 C-26.75488281 -2.16626953 -25.88476562 -2.27003906 -24.98828125 -2.37695312 C-16.28815532 -3.3114111 -8.32544591 -2.71481932 0 0 Z " fill="#0C3F6D" transform="translate(210,92)"/>
<path d="M0 0 C0.33 0.99 0.66 1.98 1 3 C3.01508358 3.73323796 3.01508358 3.73323796 5 4 C3.37750059 4.83819158 1.75191503 5.6704116 0.125 6.5 C-1.23238281 7.19609375 -1.23238281 7.19609375 -2.6171875 7.90625 C-5 9 -5 9 -7 9 C-5.44499019 5.18315774 -2.96404505 2.80804268 0 0 Z " fill="#296798" transform="translate(16,107)"/>
<path d="M0 0 C0.33 2.97 0.66 5.94 1 9 C-1 6 -1 6 -2 3 C-3.98 3.33 -5.96 3.66 -8 4 C-8.66 3.01 -9.32 2.02 -10 1 C-6.59437148 0.22157062 -3.49234244 -0.09978121 0 0 Z " fill="#135185" transform="translate(84,93)"/>
<path d="M0 0 C1.65 0 3.3 0 5 0 C5 0.66 5 1.32 5 2 C9.455 2.99 9.455 2.99 14 4 C14 4.99 14 5.98 14 7 C9.0276578 5.50829734 4.58154261 3.39542583 0 1 C0 0.67 0 0.34 0 0 Z " fill="#162B3D" transform="translate(245,84)"/>
<path d="M0 0 C1.32 0.33 2.64 0.66 4 1 C3.01 1.33 2.02 1.66 1 2 C-0.02281518 4.09719872 -0.02281518 4.09719872 -0.6875 6.5625 C-0.93886719 7.38878906 -1.19023437 8.21507813 -1.44921875 9.06640625 C-1.63097656 9.70449219 -1.81273437 10.34257813 -2 11 C-2.66 11 -3.32 11 -4 11 C-3.52269162 9.5410574 -3.04308958 8.08286504 -2.5625 6.625 C-2.29566406 5.81289062 -2.02882812 5.00078125 -1.75390625 4.1640625 C-1 2 -1 2 0 0 Z " fill="#1F537D" transform="translate(151,95)"/>
<path d="M0 0 C2.97 0 5.94 0 9 0 C9 0.66 9 1.32 9 2 C10.65 2 12.3 2 14 2 C14 2.66 14 3.32 14 4 C9.38 3.01 4.76 2.02 0 1 C0 0.67 0 0.34 0 0 Z " fill="#27669B" transform="translate(244,98)"/>
<path d="M0 0 C0.66 0 1.32 0 2 0 C3.5078125 1.75 3.5078125 1.75 5.125 4 C5.66382812 4.7425 6.20265625 5.485 6.7578125 6.25 C7.16773438 6.8275 7.57765625 7.405 8 8 C7.67 8.66 7.34 9.32 7 10 C6.6596875 9.071875 6.6596875 9.071875 6.3125 8.125 C4.62070165 5.38589791 3.00755839 4.94975528 0 4 C0 2.68 0 1.36 0 0 Z " fill="#1E507C" transform="translate(121,95)"/>
<path d="M0 0 C2.31 1.98 4.62 3.96 7 6 C3.37673261 7.2077558 2.35853631 6.54311128 -1 5 C-0.34 4.67 0.32 4.34 1 4 C0.67 2.68 0.34 1.36 0 0 Z " fill="#2F618C" transform="translate(278,105)"/>
<path d="M0 0 C0.89332031 0.12761719 1.78664062 0.25523438 2.70703125 0.38671875 C3.60808594 0.50660156 4.50914062 0.62648438 5.4375 0.75 C6.12457031 0.85699219 6.81164062 0.96398437 7.51953125 1.07421875 C7.51953125 1.40421875 7.51953125 1.73421875 7.51953125 2.07421875 C1.08453125 2.56921875 1.08453125 2.56921875 -5.48046875 3.07421875 C-2.48046875 0.07421875 -2.48046875 0.07421875 0 0 Z " fill="#114879" transform="translate(159.48046875,91.92578125)"/>
</svg>
